<svg xmlns="http://www.w3.org/2000/svg" viewBox="0 0 11.45 11.45"><defs><style>.cls-1{fill:none;}.cls-2{fill:#4a5566;}</style></defs><g id="Capa_2" data-name="Capa 2"><g id="Capa_1-2" data-name="Capa 1"><rect class="cls-1" width="11.45" height="11.45"/><path class="cls-2" d="M2.58,7.77a5.86,5.86,0,0,1-1.91-2A6.83,6.83,0,0,1,5.86,2.59a4.65,4.65,0,0,1,1.61.29l.43-.43a5.5,5.5,0,0,0-2-.41C2.9,2,.12,4.93.12,5.76A5.16,5.16,0,0,0,2.18,8.17Z"/><path class="cls-2" d="M8.91,3l1-1a.28.28,0,1,0-.39-.39L1.6,9.5a.27.27,0,0,0,0,.39.24.24,0,0,0,.19.08A.27.27,0,0,0,2,9.89L3.13,8.75a5.79,5.79,0,0,0,2.69.74c3.53,0,5.51-3.16,5.51-3.75A5.26,5.26,0,0,0,8.91,3ZM7.07,4.81a1.58,1.58,0,0,1,.32,1A1.65,1.65,0,0,1,4.77,7.11ZM5.82,8.94a5.06,5.06,0,0,1-2.28-.6l.84-.84A2.12,2.12,0,0,0,5.73,8,2.21,2.21,0,0,0,7.47,4.41l1-1a5.56,5.56,0,0,1,2.28,2.36A5.68,5.68,0,0,1,5.82,8.94Z"/><path class="cls-2" d="M5.73,4.1a1.76,1.76,0,0,1,.45.07l.43-.44a2.17,2.17,0,0,0-.88-.19A2.22,2.22,0,0,0,3.51,5.76a2.18,2.18,0,0,0,.19.89l.43-.43a1.77,1.77,0,0,1-.07-.46A1.66,1.66,0,0,1,5.73,4.1Z"/></g></g></svg>