<svg xmlns="http://www.w3.org/2000/svg" viewBox="0 0 11.45 11.45"><defs><style>.cls-1{fill:#4a5566;}.cls-2{fill:none;}</style></defs><g id="Capa_2" data-name="Capa 2"><g id="Capa_1-2" data-name="Capa 1"><path class="cls-1" d="M5.73,7.05A3,3,0,1,1,8.67,4.1,3,3,0,0,1,5.73,7.05Zm0-5.3A2.35,2.35,0,1,0,8.08,4.1,2.35,2.35,0,0,0,5.73,1.75Z"/><path class="cls-1" d="M10.55,10.3a.29.29,0,0,1-.3-.3c0-.73-.89-2.16-1.95-2.16H3.47C2.25,7.84,1.31,9.39,1.2,10a.3.3,0,1,1-.59-.11c.13-.73,1.22-2.67,2.86-2.67H8.3C9.79,7.24,10.85,9,10.85,10A.3.3,0,0,1,10.55,10.3Z"/><rect class="cls-2" width="11.45" height="11.45"/></g></g></svg>