<svg xmlns="http://www.w3.org/2000/svg" viewBox="0 0 11.45 11.45"><defs><style>.cls-1{fill:none;}.cls-2{fill:#4a5566;}</style></defs><g id="Capa_2" data-name="Capa 2"><g id="Capa_1-2" data-name="Capa 1"><rect class="cls-1" width="11.45" height="11.45"/><path class="cls-2" d="M10.34,5.45V4.91a.55.55,0,0,0-.58-.58H9.13a.05.05,0,0,1,0,0L9.43,4l.15-.15a.53.53,0,0,0,0-.78L8.39,1.87a.54.54,0,0,0-.79,0L7.46,2l-.29.28a.05.05,0,0,1,0,0s0,0,0,0V1.67a.54.54,0,0,0-.54-.56H4.87a.52.52,0,0,0-.54.55v.6a.43.43,0,0,0,0,0l-.05,0A3.7,3.7,0,0,1,4,2l-.14-.14a.54.54,0,0,0-.79,0c-.4.4-.8.79-1.19,1.19a.53.53,0,0,0,0,.78A1.21,1.21,0,0,0,2,4l.27.28a.05.05,0,0,1,0,0H1.69a.53.53,0,0,0-.57.57c0,.55,0,1.11,0,1.66a.54.54,0,0,0,.56.56h.65a.05.05,0,0,1,0,0L2,7.45s-.11.1-.16.16a.53.53,0,0,0,0,.78L3.06,9.58a.53.53,0,0,0,.78,0L4,9.43l.27-.27a.05.05,0,0,1,0,0,.08.08,0,0,1,0,0v.61a.54.54,0,0,0,.55.55H6.57a.54.54,0,0,0,.55-.56V9.17s0,0,0,0l0,0,.28.27.16.16a.54.54,0,0,0,.78,0L9.58,8.39a.53.53,0,0,0,0-.78l-.15-.15-.27-.28a.05.05,0,0,1,0,0l0,0h.61a.54.54,0,0,0,.56-.56V5.45ZM8.64,6.93a.53.53,0,0,0,.14.61l.11.11L9.2,8l0,0,0,0L8,9.2l0,0,0,0-.35-.35-.08-.08a.54.54,0,0,0-.93.38v.62a.06.06,0,0,1,0,0H4.86a.24.24,0,0,1,0-.07V9.16a.53.53,0,0,0-.34-.52.51.51,0,0,0-.59.13l0,0-.39.39c-.05.05,0,0-.08,0L2.25,8l0,0,0,0,.3-.31.13-.13a.53.53,0,0,0,.14-.59A.55.55,0,0,0,2.3,6.6H1.64a.06.06,0,0,1,0,0V4.9a.06.06,0,0,1,0,0h.65a.52.52,0,0,0,.52-.33.53.53,0,0,0-.14-.61l-.09-.09-.33-.33,0,0s0,0,0,0L3.41,2.25l0,0,0,0,.33.33.1.1a.53.53,0,0,0,.6.13.52.52,0,0,0,.33-.52v-.6s0-.05,0-.05H6.59s0,0,0,.07v.59a.52.52,0,0,0,.34.52.53.53,0,0,0,.6-.13l.17-.18L8,2.25s0,0,.08,0L9.2,3.41l0,0,0,0-.31.31-.12.12a.53.53,0,0,0-.14.59.55.55,0,0,0,.52.34h.66a.06.06,0,0,1,0,0V6.55a.06.06,0,0,1,0,0H9.17A.52.52,0,0,0,8.64,6.93Z"/><path class="cls-2" d="M5.79,4a1.82,1.82,0,0,0-1.27.47A1.78,1.78,0,0,0,5.66,7.5h.07A1.79,1.79,0,0,0,7.5,5.78,1.77,1.77,0,0,0,5.79,4ZM7,5.72a1.24,1.24,0,0,1-.37.89A1.22,1.22,0,0,1,5.73,7a1.25,1.25,0,0,1-.89-2.14,1.22,1.22,0,0,1,.89-.37h0a1.23,1.23,0,0,1,.88.37A1.22,1.22,0,0,1,7,5.72Z"/></g></g></svg>