<svg xmlns="http://www.w3.org/2000/svg" viewBox="0 0 136.76 136.79"><defs><style>.cls-1{fill:#3a5ba0;}</style></defs><g id="Capa_2" data-name="Capa 2"><g id="Capa_1-2" data-name="Capa 1"><path class="cls-1" d="M68.44,0q28.25,0,56.49,0a11.22,11.22,0,0,1,10.73,6.39,12.1,12.1,0,0,1,1.09,5.82q0,25,0,49.94,0,31.32,0,62.64c0,5-2,8.66-6.48,11a12.61,12.61,0,0,1-6,1H42.57c-10.32,0-20.64,0-31,0-5.73,0-10-3.32-11.31-8.66a12.82,12.82,0,0,1-.29-3Q0,68.5,0,11.94C0,5.91,3.29,1.55,8.77.29A17.32,17.32,0,0,1,12.65,0ZM77.1,56.9c0-4,0-7.68,0-11.39,0-3.17,1.3-4.86,4.42-5.18,2.85-.3,5.74-.26,8.62-.31.89,0,1.22-.29,1.21-1.21q-.06-6.14,0-12.27c0-.94-.35-1.21-1.23-1.19-4.6.11-9.2,0-13.79.31A17.26,17.26,0,0,0,60.6,38.55,29.25,29.25,0,0,0,59.69,45c-.15,3.44,0,6.88,0,10.32,0,.49,0,1-.09,1.62H45.41c0,4.42.05,8.69,0,13,0,1.28.44,1.57,1.6,1.56,3.53,0,7.06,0,10.6,0,2.06,0,2.07,0,2.07,2q0,18.06,0,36.13c0,1.86,0,1.86,1.8,1.86h13.8c1.85,0,1.85,0,1.85-1.81,0-12.23,0-24.46,0-36.69,0-1.15.32-1.54,1.49-1.51,2.83.07,5.67,0,8.5,0A1.45,1.45,0,0,0,88.8,70c.2-1.28.49-2.55.74-3.82.6-3,1.2-6.07,1.83-9.28Z"/></g></g></svg>