<svg xmlns="http://www.w3.org/2000/svg" viewBox="0 0 11.45 11.45"><defs><style>.cls-1{fill:none;}.cls-2{fill:#4a5566;}</style></defs><g id="Capa_2" data-name="Capa 2"><g id="Capa_1-2" data-name="Capa 1"><rect class="cls-1" width="11.45" height="11.45"/><path class="cls-2" d="M5.86,2C2.9,2,.12,4.89.12,5.73s2.63,3.72,5.7,3.72c3.52,0,5.51-3.16,5.51-3.74C11.33,4.93,9,2,5.86,2Zm0,6.9C3,8.9.73,6.11.67,5.73S3.16,2.55,5.86,2.55A5.94,5.94,0,0,1,10.78,5.7,5.66,5.66,0,0,1,5.82,8.9Z"/><path class="cls-2" d="M5.73,3.51A2.22,2.22,0,1,0,7.94,5.73,2.21,2.21,0,0,0,5.73,3.51Zm0,3.88A1.67,1.67,0,1,1,7.39,5.73,1.67,1.67,0,0,1,5.73,7.39Z"/></g></g></svg>