<svg xmlns="http://www.w3.org/2000/svg" viewBox="0 0 137.1 137.09"><defs><style>.cls-1{fill:#2ca7df;}.cls-2{fill:#fdfefe;}</style></defs><g id="Capa_2" data-name="Capa 2"><g id="Capa_1-2" data-name="Capa 1"><path class="cls-1" d="M0,68.54Q0,40.25,0,12A11.47,11.47,0,0,1,8.52.44,12.83,12.83,0,0,1,12,0H125.29a11.49,11.49,0,0,1,11.8,11.81q0,56.73,0,113.46a11.49,11.49,0,0,1-11.81,11.8H11.81A11.49,11.49,0,0,1,0,125.27Q0,96.91,0,68.54Zm110.94-24.8c-3.31,1.07-6.47,2.61-10,3a28.5,28.5,0,0,0,7.61-11c-2.84,1.66-5.23,3.36-7.88,4.61A1.55,1.55,0,0,1,98.46,40c-.77-.93-1.65-1.76-2.51-2.62a13.78,13.78,0,0,0-9.31-4.48,16.93,16.93,0,0,0-18,19.06c.08.78,0,1-.79.94a77.59,77.59,0,0,1-16.43-1.81,35.42,35.42,0,0,1-19.3-11.72c-.31-.37-.61-1-1.07-.09-1.35,2.57-2.52,5.17-2.44,8.17.16,5.21,2.65,9.17,6.47,12.45.51.44,1.05.84,1.83,1.46-3.19-.07-5.65-1.37-8.3-2.37C31.05,69.59,38.86,74.9,48.47,78.79c-4.83,2.14-9.39.52-14.12-.11A15.79,15.79,0,0,0,41,86.83,22.92,22.92,0,0,0,51.29,90c-7.57,5.66-15.85,7.61-25.09,6.89a4.22,4.22,0,0,0,.49.46c.61.35,1.2.71,1.83,1a57.09,57.09,0,0,0,35.39,5c15.14-2.63,26.25-11,33.34-24.57a50.24,50.24,0,0,0,5.56-24,3.3,3.3,0,0,1,1.35-3.06,29.56,29.56,0,0,0,5.75-6.22c.39-.55,1-1,1-1.76l.13-.08H111A.2.2,0,0,0,110.94,43.74Z"/><path class="cls-2" d="M120.32,50.69a.73.73,0,0,1,.05-.09s0,0,.07,0l-.14.08Z"/><polygon class="cls-1" points="109.87 53.94 109.83 53.86 109.93 53.86 109.87 53.94"/></g></g></svg>