<svg xmlns="http://www.w3.org/2000/svg" viewBox="0 0 11.45 11.45"><defs><style>.cls-1{fill:none;}.cls-2{fill:#f16439;}</style></defs><g id="Capa_2" data-name="Capa 2"><g id="Capa_1-2" data-name="Capa 1"><rect class="cls-1" width="11.45" height="11.45"/><path class="cls-2" d="M10,5.42H9.4A3.72,3.72,0,0,0,6,2.05V1.46a.32.32,0,0,0-.23-.29.26.26,0,0,0-.31.12.43.43,0,0,0-.07.2v.57A3.69,3.69,0,0,0,2.06,5.42H1.47a.34.34,0,0,0-.31.25A.29.29,0,0,0,1.31,6a.61.61,0,0,0,.18,0h.57A3.71,3.71,0,0,0,5.42,9.39V10a.3.3,0,0,0,.59.11A.78.78,0,0,0,6,10V9.4A3.74,3.74,0,0,0,9.4,6H10a.31.31,0,1,0,0-.61ZM5.72,8.81A3.09,3.09,0,1,1,8.81,5.73,3.1,3.1,0,0,1,5.72,8.81Z"/><path class="cls-2" d="M5.73,4.23A1.49,1.49,0,1,0,7.21,5.72,1.48,1.48,0,0,0,5.73,4.23Zm0,2.38a.89.89,0,1,1,.89-.89A.88.88,0,0,1,5.72,6.61Z"/></g></g></svg>