<svg xmlns="http://www.w3.org/2000/svg" viewBox="0 0 11.45 11.45"><defs><style>.cls-1{fill:none;}.cls-2{fill:#4a5566;}</style></defs><g id="Capa_2" data-name="Capa 2"><g id="Capa_1-2" data-name="Capa 1"><rect class="cls-1" width="11.45" height="11.45"/><path class="cls-2" d="M8.92,5.33H8.35V3.85a2.64,2.64,0,1,0-5.27,0V5.33H2.53a.31.31,0,0,0-.3.3V9.94a.31.31,0,0,0,.3.3H8.92a.31.31,0,0,0,.3-.3V5.63A.31.31,0,0,0,8.92,5.33ZM3.69,3.85a2,2,0,1,1,4.07,0V5.33H3.69ZM8.62,9.64H2.83V5.93H8.62Z"/></g></g></svg>