<svg xmlns="http://www.w3.org/2000/svg" viewBox="0 0 137.03 137.03"><defs><style>.cls-1{fill:#017abe;}</style></defs><g id="Capa_2" data-name="Capa 2"><g id="Capa_1-2" data-name="Capa 1"><path class="cls-1" d="M124.7,0H12.33A12.33,12.33,0,0,0,0,12.33V124.7A12.33,12.33,0,0,0,12.33,137H124.7A12.33,12.33,0,0,0,137,124.7V12.33A12.33,12.33,0,0,0,124.7,0ZM33.17,22a10.17,10.17,0,1,1-10.46,10.1A10.22,10.22,0,0,1,33.17,22Zm8.61,92.37q-8.89,0-17.79,0c-1.09,0-1.42-.38-1.41-1.47,0-10.13,0-20.27,0-30.4,0-10,0-19.92,0-29.87,0-1.32.4-1.62,1.65-1.61,5.84.07,11.68.06,17.52,0,1.14,0,1.54.3,1.54,1.49q0,30.14,0,60.27C43.28,114,42.93,114.39,41.78,114.39Zm74-1.4c0,.26,0,.52-.08.91H94.84v-1.74c0-10.48,0-21,0-31.46a13.27,13.27,0,0,0-3.1-9,11.31,11.31,0,0,0-12.72-3c-3.88,1.71-5.39,5-5.43,9-.1,11.47,0,22.93,0,34.39,0,1.81,0,1.81-1.79,1.81-6,0-12,0-17.92,0-1.13,0-1.44-.38-1.44-1.45q0-29.87,0-59.74c0-1.07.34-1.48,1.45-1.47q9.16.06,18.33,0c1,0,1.42.29,1.39,1.36-.06,2.34,0,4.69,0,7.37.5-.5.81-.82,1.13-1.13C79.84,53.83,86,51,93.34,51.15a37.14,37.14,0,0,1,6,.6c5.92,1.13,9.54,5.31,12.59,10a24.73,24.73,0,0,1,3.73,13.38C115.86,87.77,115.78,100.38,115.78,113Z"/></g></g></svg>