<svg xmlns="http://www.w3.org/2000/svg" viewBox="0 0 92.69 26.38"><defs><style>.cls-1{fill:#f16339;}.cls-2{fill:none;}.cls-3{fill:#fff;}</style></defs><g id="Capa_2" data-name="Capa 2"><g id="Capa_1-2" data-name="Capa 1"><path class="cls-1" d="M10.41,1.81C9.28,4.45,5.1,5.07,1.89,4.51V15.9c0,2.85,6.78,8.63,8.52,8.83,1.85-.26,8.64-6,8.64-8.83V4.61C15.84,5,11.58,4.42,10.41,1.81Zm0,6A5.88,5.88,0,0,1,14.7,9.64a1.7,1.7,0,0,0-1,1.53v1.74a3,3,0,0,1-3.16,2.22c-2.08,0-3.21-1.45-3.21-2.19V11.18A1.68,1.68,0,0,0,6.15,9.62,5.85,5.85,0,0,1,10.41,7.78Zm0,11.75a5.88,5.88,0,0,1-5.88-5.88,5.82,5.82,0,0,1,1.08-3.38c.46.09.94.36.94.91v1.76c0,1.07,1.33,3,4,3s3.94-1.94,3.94-3V11.17a.93.93,0,0,1,.74-.89,5.87,5.87,0,0,1-4.81,9.25Z"/><rect class="cls-2" width="92.69" height="26.38"/><path class="cls-3" d="M23.05,14.7a10,10,0,0,0,4.67,1.62c1.5,0,2.4-.36,2.4-1.79,0-1.24-2.77-1.39-4.51-2-2.41-.84-3.2-1.65-3.2-3.76,0-2.47,2.13-4.14,5.54-4.14a13.88,13.88,0,0,1,4.61.87l-.73,2.64a9.78,9.78,0,0,0-4-1.12c-1.41,0-2.31.46-2.31,1.39s1.11,1.58,3,2.1c2.67.72,4.9,1.06,4.9,3.8,0,2.42-1.74,4.48-6.17,4.48a14.4,14.4,0,0,1-5.18-1.67Z"/><path class="cls-3" d="M64.44,5.7V8.07h2.34v2.41H64.12l0,3.8c0,1.26.17,2.19,1.43,2.19.4,0,.89-.39,1.12-.43l.94,2.08a7.18,7.18,0,0,1-3,.66,3.4,3.4,0,0,1-2.45-.9,4.34,4.34,0,0,1-.9-3.11V10.48H59.63V8.07h1.61V5.7Z"/><path class="cls-3" d="M68.53,16.7l3.3-4.14c.6-.71,1.32-1.47,1.92-2.11v0H68.9V8.07h8.59v2l-3.16,4c-.58.68-1.33,1.68-1.93,2.26v0H78v2.26H68.53Z"/><path class="cls-3" d="M90.17,15.2v3.37H87.26V17.09h-.06a5.61,5.61,0,0,1-4.06,1.71c-2.13,0-3.7-1.33-3.7-4.57V8.07h3.29v5.65c0,1.52.49,2.44,1.63,2.44A3.23,3.23,0,0,0,86.78,15a1.77,1.77,0,0,0,.11-.71V8.07h3.28Z"/><path class="cls-3" d="M53.68,7.84a5.23,5.23,0,0,0-5.6,5.56,5.13,5.13,0,0,0,5.43,5.4,5.27,5.27,0,0,0,5.54-5.6A5.1,5.1,0,0,0,53.68,7.84Zm-.12,8.46a3,3,0,1,1,2.84-3A3,3,0,0,1,53.56,16.3Z"/><path class="cls-3" d="M41.68,7.84a4,4,0,0,0-3.49,1.69h0V8H35.23c.05,1,0,2.22,0,3.59V22.25h3.26V17.6h0a3.25,3.25,0,0,0,2.73,1.2,5.43,5.43,0,0,0,5.38-5.62A5.2,5.2,0,0,0,41.68,7.84Zm-.56,8.55a2.85,2.85,0,0,1-2.67-3.07,2.85,2.85,0,0,1,2.67-3.07,2.94,2.94,0,0,1,2.78,3.07A2.94,2.94,0,0,1,41.12,16.39Z"/></g></g></svg>